<?xml version="1.0" encoding="utf-8"?>
<!-- Generator: Adobe Illustrator 17.0.0, SVG Export Plug-In . SVG Version: 6.00 Build 0)  -->
<!DOCTYPE svg PUBLIC "-//W3C//DTD SVG 1.1//EN" "http://www.w3.org/Graphics/SVG/1.1/DTD/svg11.dtd">
<svg version="1.1" id="Layer_1" xmlns="http://www.w3.org/2000/svg" xmlns:xlink="http://www.w3.org/1999/xlink" x="0px" y="0px"
	 width="187px" height="25px" viewBox="0 0 187 25" enable-background="new 0 0 187 25" xml:space="preserve">
<g>
	<g>
		<g>
			<g>
				<g>
					<linearGradient id="SVGID_1_" gradientUnits="userSpaceOnUse" x1="103.2001" y1="2.9891" x2="103.2001" y2="19.9062">
						<stop  offset="0" style="stop-color:#EF8137"/>
						<stop  offset="0.3456" style="stop-color:#EB7E35"/>
						<stop  offset="0.6832" style="stop-color:#DF752F"/>
						<stop  offset="1" style="stop-color:#CD6725"/>
					</linearGradient>
					<path fill="url(#SVGID_1_)" d="M94.508,11.494v-0.047c0-4.65,3.668-8.458,8.715-8.458c5.047,0,8.668,3.762,8.668,8.412v0.047
						c0,4.65-3.668,8.459-8.715,8.459C98.13,19.906,94.508,16.144,94.508,11.494z M108.131,11.494v-0.047
						c0-2.804-2.056-5.14-4.954-5.14s-4.908,2.29-4.908,5.094v0.047c0,2.804,2.056,5.141,4.954,5.141S108.131,14.298,108.131,11.494
						z"/>
				</g>
			</g>
			<g>
				<g>
					<linearGradient id="SVGID_2_" gradientUnits="userSpaceOnUse" x1="116.8207" y1="2.4051" x2="116.8207" y2="19.6257">
						<stop  offset="0" style="stop-color:#EF8137"/>
						<stop  offset="0.3456" style="stop-color:#EB7E35"/>
						<stop  offset="0.6832" style="stop-color:#DF752F"/>
						<stop  offset="1" style="stop-color:#CD6725"/>
					</linearGradient>
					<path fill="url(#SVGID_2_)" d="M114.356,10.139h-1.473V7.218h1.473V6.424c0-1.378,0.351-2.383,1.004-3.037
						c0.655-0.654,1.613-0.981,2.874-0.981c1.122,0,1.869,0.14,2.524,0.35V5.7c-0.514-0.187-1.004-0.304-1.613-0.304
						c-0.818,0-1.285,0.421-1.285,1.355v0.491h2.874v2.897h-2.828v9.487h-3.551V10.139z"/>
				</g>
			</g>
			<g>
				<g>
					<linearGradient id="SVGID_3_" gradientUnits="userSpaceOnUse" x1="127.0868" y1="6.8681" x2="127.0868" y2="19.9062">
						<stop  offset="0" style="stop-color:#EF8137"/>
						<stop  offset="0.3456" style="stop-color:#EB7E35"/>
						<stop  offset="0.6832" style="stop-color:#DF752F"/>
						<stop  offset="1" style="stop-color:#CD6725"/>
					</linearGradient>
					<path fill="url(#SVGID_3_)" d="M120.941,13.434v-0.047c0-3.575,2.547-6.519,6.193-6.519c4.181,0,6.098,3.248,6.098,6.799
						c0,0.281-0.023,0.608-0.047,0.935h-8.716c0.351,1.612,1.473,2.453,3.061,2.453c1.192,0,2.056-0.374,3.039-1.285l2.032,1.799
						c-1.167,1.448-2.85,2.337-5.117,2.337C123.723,19.906,120.941,17.266,120.941,13.434z M129.774,12.382
						c-0.211-1.589-1.145-2.664-2.64-2.664c-1.473,0-2.43,1.052-2.711,2.664H129.774z"/>
				</g>
			</g>
			<g>
				<g>
					<linearGradient id="SVGID_4_" gradientUnits="userSpaceOnUse" x1="138.5839" y1="6.8626" x2="138.5839" y2="19.6257">
						<stop  offset="0" style="stop-color:#EF8137"/>
						<stop  offset="0.3456" style="stop-color:#EB7E35"/>
						<stop  offset="0.6832" style="stop-color:#DF752F"/>
						<stop  offset="1" style="stop-color:#CD6725"/>
					</linearGradient>
					<path fill="url(#SVGID_4_)" d="M134.81,7.102h3.553v2.523c0.723-1.729,1.892-2.85,3.995-2.757v3.715h-0.186
						c-2.361,0-3.809,1.426-3.809,4.416v4.626h-3.553V7.102z"/>
				</g>
			</g>
			<g>
				<g>
					<linearGradient id="SVGID_5_" gradientUnits="userSpaceOnUse" x1="148.023" y1="3.9005" x2="148.023" y2="19.836">
						<stop  offset="0" style="stop-color:#EF8137"/>
						<stop  offset="0.3456" style="stop-color:#EB7E35"/>
						<stop  offset="0.6832" style="stop-color:#DF752F"/>
						<stop  offset="1" style="stop-color:#CD6725"/>
					</linearGradient>
					<path fill="url(#SVGID_5_)" d="M145.523,16.074v-5.935h-1.496V7.102h1.496V3.901h3.551v3.201h2.944v3.037h-2.944v5.351
						c0,0.818,0.351,1.215,1.145,1.215c0.654,0,1.239-0.164,1.752-0.444v2.851c-0.748,0.444-1.613,0.724-2.804,0.724
						C146.995,19.836,145.523,18.971,145.523,16.074z"/>
				</g>
			</g>
			<g>
				<g>
					<linearGradient id="SVGID_6_" gradientUnits="userSpaceOnUse" x1="158.5959" y1="6.9612" x2="158.5959" y2="19.8592">
						<stop  offset="0" style="stop-color:#EF8137"/>
						<stop  offset="0.3456" style="stop-color:#EB7E35"/>
						<stop  offset="0.6832" style="stop-color:#DF752F"/>
						<stop  offset="1" style="stop-color:#CD6725"/>
					</linearGradient>
					<path fill="url(#SVGID_6_)" d="M152.836,16.027v-0.047c0-2.734,2.08-3.996,5.047-3.996c1.26,0,2.173,0.21,3.061,0.514v-0.21
						c0-1.472-0.911-2.29-2.688-2.29c-1.355,0-2.313,0.257-3.458,0.677l-0.888-2.71c1.378-0.608,2.735-1.005,4.861-1.005
						c1.939,0,3.34,0.514,4.229,1.402c0.934,0.934,1.355,2.313,1.355,3.995v7.267h-3.435V18.27
						c-0.865,0.958-2.056,1.589-3.785,1.589C154.775,19.859,152.836,18.504,152.836,16.027z M160.991,15.21v-0.631
						c-0.608-0.281-1.402-0.468-2.266-0.468c-1.519,0-2.454,0.608-2.454,1.729v0.047c0,0.958,0.795,1.519,1.939,1.519
						C159.869,17.406,160.991,16.495,160.991,15.21z"/>
				</g>
			</g>
			<g>
				<g>
					<linearGradient id="SVGID_7_" gradientUnits="userSpaceOnUse" x1="170.8805" y1="6.9147" x2="170.8805" y2="19.8592">
						<stop  offset="0" style="stop-color:#EF8137"/>
						<stop  offset="0.3456" style="stop-color:#EB7E35"/>
						<stop  offset="0.6832" style="stop-color:#DF752F"/>
						<stop  offset="1" style="stop-color:#CD6725"/>
					</linearGradient>
					<path fill="url(#SVGID_7_)" d="M165.798,17.967l1.519-2.336c1.355,0.981,2.78,1.495,3.948,1.495
						c1.028,0,1.495-0.374,1.495-0.935v-0.047c0-0.771-1.214-1.028-2.594-1.448c-1.752-0.514-3.738-1.332-3.738-3.762v-0.047
						c0-2.547,2.055-3.972,4.579-3.972c1.589,0,3.318,0.537,4.673,1.449l-1.355,2.453c-1.239-0.724-2.477-1.168-3.388-1.168
						c-0.865,0-1.308,0.374-1.308,0.865v0.047c0,0.701,1.192,1.028,2.547,1.495c1.752,0.584,3.785,1.425,3.785,3.715v0.047
						c0,2.781-2.08,4.042-4.79,4.042C169.421,19.859,167.457,19.275,165.798,17.967z"/>
				</g>
			</g>
		</g>
	</g>
	<g>
		<g>
			<g>
				<g>
					<linearGradient id="SVGID_8_" gradientUnits="userSpaceOnUse" x1="17.2378" y1="1.4475" x2="17.2378" y2="18.3646">
						<stop  offset="0" style="stop-color:#0E72B5"/>
						<stop  offset="0.3652" style="stop-color:#0C70B1"/>
						<stop  offset="0.7633" style="stop-color:#066BA3"/>
						<stop  offset="1" style="stop-color:#006798"/>
					</linearGradient>
					<path fill="url(#SVGID_8_)" d="M9.445,9.953V9.906c0-4.65,3.622-8.458,8.575-8.458c2.944,0,4.72,0.795,6.426,2.243L22.18,6.425
						c-1.262-1.052-2.384-1.659-4.276-1.659c-2.617,0-4.697,2.313-4.697,5.094v0.047c0,2.991,2.056,5.187,4.954,5.187
						c1.308,0,2.476-0.327,3.387-0.981v-2.337h-3.621V8.668h7.104v7.103c-1.682,1.426-3.996,2.594-6.987,2.594
						C12.95,18.365,9.445,14.789,9.445,9.953z"/>
				</g>
			</g>
			<g>
				<g>
					<linearGradient id="SVGID_9_" gradientUnits="userSpaceOnUse" x1="32.9615" y1="7.1017" x2="32.9615" y2="19.8592">
						<stop  offset="0" style="stop-color:#0E72B5"/>
						<stop  offset="0.3652" style="stop-color:#0C70B1"/>
						<stop  offset="0.7633" style="stop-color:#066BA3"/>
						<stop  offset="1" style="stop-color:#006798"/>
					</linearGradient>
					<path fill="url(#SVGID_9_)" d="M27.225,15.21V7.102h3.553v6.986c0,1.682,0.793,2.547,2.15,2.547
						c1.355,0,2.219-0.865,2.219-2.547V7.102h3.551v12.524h-3.551V17.85c-0.818,1.052-1.87,2.01-3.669,2.01
						C28.791,19.859,27.225,18.084,27.225,15.21z"/>
				</g>
			</g>
			<g>
				<g>
					<linearGradient id="SVGID_10_" gradientUnits="userSpaceOnUse" x1="44.2931" y1="6.8626" x2="44.2931" y2="19.6257">
						<stop  offset="0" style="stop-color:#0E72B5"/>
						<stop  offset="0.3652" style="stop-color:#0C70B1"/>
						<stop  offset="0.7633" style="stop-color:#066BA3"/>
						<stop  offset="1" style="stop-color:#006798"/>
					</linearGradient>
					<path fill="url(#SVGID_10_)" d="M40.519,7.102h3.551v2.523c0.725-1.729,1.893-2.85,3.996-2.757v3.715h-0.188
						c-2.359,0-3.809,1.426-3.809,4.416v4.626h-3.551V7.102z"/>
				</g>
			</g>
			<g>
				<g>
					<linearGradient id="SVGID_11_" gradientUnits="userSpaceOnUse" x1="55.0775" y1="1.5872" x2="55.0775" y2="19.8592">
						<stop  offset="0" style="stop-color:#0E72B5"/>
						<stop  offset="0.3652" style="stop-color:#0C70B1"/>
						<stop  offset="0.7633" style="stop-color:#066BA3"/>
						<stop  offset="1" style="stop-color:#006798"/>
					</linearGradient>
					<path fill="url(#SVGID_11_)" d="M49.341,15.21V7.102h3.553v6.986c0,1.682,0.793,2.547,2.15,2.547
						c1.355,0,2.219-0.865,2.219-2.547V7.102h3.551v12.524h-3.551V17.85c-0.818,1.052-1.87,2.01-3.669,2.01
						C50.907,19.859,49.341,18.084,49.341,15.21z M56.024,1.587l3.061,1.332l-2.991,2.804h-2.71L56.024,1.587z"/>
				</g>
			</g>
			<g>
				<g>
					<linearGradient id="SVGID_12_" gradientUnits="userSpaceOnUse" x1="71.9346" y1="2.5044" x2="71.9346" y2="19.8175">
						<stop  offset="0" style="stop-color:#0E72B5"/>
						<stop  offset="0.3652" style="stop-color:#0C70B1"/>
						<stop  offset="0.7633" style="stop-color:#066BA3"/>
						<stop  offset="1" style="stop-color:#006798"/>
					</linearGradient>
					<path fill="url(#SVGID_12_)" d="M76.233,19.56v-2.43c-0.249,0.358-0.525,0.701-0.829,1.028
						c-0.304,0.327-0.642,0.615-1.016,0.864c-0.374,0.25-0.791,0.444-1.25,0.584c-0.46,0.14-0.97,0.21-1.531,0.21
						c-0.732,0-1.441-0.14-2.126-0.42c-0.685-0.28-1.3-0.689-1.846-1.227c-0.545-0.538-0.981-1.195-1.309-1.974
						c-0.327-0.779-0.49-1.667-0.49-2.664c0-0.996,0.163-1.885,0.49-2.663c0.328-0.779,0.763-1.437,1.309-1.974
						c0.545-0.538,1.16-0.95,1.846-1.238s1.394-0.433,2.126-0.433c0.561,0,1.075,0.07,1.542,0.21
						c0.467,0.14,0.888,0.327,1.261,0.561c0.374,0.234,0.713,0.506,1.017,0.818C75.731,9.124,76,9.451,76.233,9.794V2.504h1.799
						V19.56H76.233z M75.942,11.603c-0.242-0.574-0.569-1.062-0.982-1.465c-0.413-0.403-0.88-0.717-1.401-0.941
						c-0.522-0.225-1.063-0.337-1.624-0.337c-0.592,0-1.145,0.105-1.659,0.314c-0.514,0.209-0.962,0.512-1.344,0.907
						c-0.381,0.395-0.685,0.883-0.911,1.464c-0.226,0.581-0.339,1.237-0.339,1.965c0,0.713,0.113,1.356,0.339,1.93
						c0.226,0.573,0.534,1.066,0.923,1.476c0.389,0.411,0.841,0.725,1.355,0.941c0.514,0.217,1.059,0.325,1.636,0.325
						c0.561,0,1.102-0.112,1.624-0.337c0.522-0.225,0.989-0.539,1.401-0.941s0.74-0.895,0.982-1.476
						c0.241-0.581,0.362-1.221,0.362-1.918C76.304,12.812,76.183,12.176,75.942,11.603z"/>
				</g>
			</g>
			<g>
				<g>
					<linearGradient id="SVGID_13_" gradientUnits="userSpaceOnUse" x1="85.0391" y1="7.2239" x2="85.0391" y2="19.8405">
						<stop  offset="0" style="stop-color:#0E72B5"/>
						<stop  offset="0.3652" style="stop-color:#0C70B1"/>
						<stop  offset="0.7633" style="stop-color:#066BA3"/>
						<stop  offset="1" style="stop-color:#006798"/>
					</linearGradient>
					<path fill="url(#SVGID_13_)" d="M81.639,15.927c0.249,0.506,0.568,0.934,0.958,1.285c0.389,0.351,0.826,0.616,1.309,0.794
						c0.483,0.179,0.989,0.269,1.519,0.269c0.841,0,1.561-0.156,2.161-0.467s1.149-0.724,1.648-1.238l1.121,1.005
						c-0.607,0.685-1.301,1.234-2.079,1.647c-0.779,0.412-1.745,0.619-2.898,0.619c-0.826,0-1.604-0.152-2.336-0.456
						c-0.733-0.303-1.373-0.732-1.921-1.285c-0.549-0.552-0.985-1.218-1.309-1.997c-0.323-0.779-0.485-1.636-0.485-2.57
						c0-0.872,0.143-1.694,0.432-2.465c0.288-0.771,0.689-1.441,1.203-2.009c0.514-0.568,1.126-1.016,1.835-1.343
						c0.708-0.327,1.483-0.491,2.324-0.491c0.888,0,1.682,0.168,2.384,0.502c0.701,0.335,1.293,0.791,1.776,1.367
						c0.483,0.577,0.849,1.254,1.098,2.033c0.249,0.779,0.374,1.612,0.374,2.5c0,0.078,0,0.164,0,0.257s-0.008,0.195-0.024,0.304
						h-9.556C81.234,14.841,81.39,15.421,81.639,15.927z M88.906,12.855c-0.047-0.545-0.159-1.066-0.337-1.565
						c-0.178-0.498-0.425-0.934-0.743-1.308c-0.318-0.374-0.705-0.674-1.161-0.9c-0.457-0.226-0.988-0.339-1.591-0.339
						c-0.527,0-1.014,0.106-1.463,0.315c-0.45,0.21-0.844,0.499-1.184,0.865c-0.341,0.366-0.619,0.799-0.836,1.297
						c-0.217,0.498-0.357,1.044-0.418,1.635H88.906z"/>
				</g>
			</g>
		</g>
	</g>
	<ellipse fill="#D8D8D8" cx="17.874" cy="23.142" rx="6.941" ry="0.858"/>
</g>
</svg>
